<svg width="24" height="24" viewBox="0 0 24 24" fill="none" xmlns="http://www.w3.org/2000/svg">
<path d="M21.17 10.4853C22.2529 10.4853 23.1308 11.3633 23.1308 12.4462C23.1308 13.4389 22.3931 14.2593 21.436 14.3892L21.17 14.4071H1.997C0.914044 14.4071 0.0361328 13.5292 0.0361328 12.4462C0.0361328 11.4535 0.773822 10.6331 1.73092 10.5032L1.997 10.4853H21.17Z" fill="#F1F1F1"/>
<path d="M11.5834 0.907227C12.5761 0.907227 13.3965 1.64492 13.5263 2.60202L13.5442 2.8681V22.0228C13.5442 23.1058 12.6663 23.9837 11.5834 23.9837C10.5906 23.9837 9.77022 23.246 9.64038 22.2889L9.62248 22.0228V2.8681C9.62248 1.78514 10.5004 0.907227 11.5834 0.907227Z" fill="#F1F1F1"/>
</svg>
