<svg width="31" height="30" viewBox="0 0 31 30" fill="none" xmlns="http://www.w3.org/2000/svg">
<path fill-rule="evenodd" clip-rule="evenodd" d="M21.6212 0H8.5448C3.4668 0 0.0830078 3.62985 0.0830078 8.83975V21.1602C0.0830078 26.375 3.45788 30 8.5448 30H21.6212C26.7081 30 30.083 26.375 30.083 21.1602V8.83975C30.083 3.62498 26.7081 0 21.6212 0ZM8.54455 2.09303H21.621C25.5172 2.09303 27.9897 4.74882 27.9897 8.83976V21.1603C27.9897 25.2512 25.5172 27.907 21.621 27.907H8.54455C4.64834 27.907 2.17578 25.2512 2.17578 21.1603V8.83976C2.17578 4.75425 4.6566 2.09303 8.54455 2.09303ZM15.0829 8.8288C15.6127 8.8288 16.0506 9.2225 16.1198 9.7333L16.1294 9.87531V13.9402H20.199C20.777 13.9402 21.2455 14.4087 21.2455 14.9867C21.2455 15.5165 20.8518 15.9544 20.341 16.0237L20.199 16.0332H16.1294V20.0981C16.1294 20.6761 15.6609 21.1446 15.0829 21.1446C14.5531 21.1446 14.1152 20.7509 14.0459 20.2401L14.0364 20.0981V16.0332H9.96643C9.38846 16.0332 8.91992 15.5647 8.91992 14.9867C8.91992 14.4569 9.31363 14.0191 9.82443 13.9498L9.96643 13.9402H14.0364V9.87531C14.0364 9.29734 14.5049 8.8288 15.0829 8.8288Z" fill="#F1F1F1"/>
</svg>
