<svg width="31" height="28" viewBox="0 0 31 28" fill="none" xmlns="http://www.w3.org/2000/svg">
<path fill-rule="evenodd" clip-rule="evenodd" d="M20.4401 2.3335H24.5233C26.2127 2.3335 27.5832 3.62371 27.5832 5.21538V9.05828C27.5832 10.6487 26.2127 11.9402 24.5233 11.9402H20.4401C18.7494 11.9402 17.3789 10.6487 17.3789 9.05828V5.21538C17.3789 3.62371 18.7494 2.3335 20.4401 2.3335Z" stroke="white" stroke-width="1.5" stroke-linecap="round" stroke-linejoin="round"/>
<path fill-rule="evenodd" clip-rule="evenodd" d="M5.64416 2.3335H9.72612C11.4168 2.3335 12.7873 3.62371 12.7873 5.21538V9.05828C12.7873 10.6487 11.4168 11.9402 9.72612 11.9402H5.64416C3.95348 11.9402 2.58301 10.6487 2.58301 9.05828V5.21538C2.58301 3.62371 3.95348 2.3335 5.64416 2.3335Z" stroke="white" stroke-width="1.5" stroke-linecap="round" stroke-linejoin="round"/>
<path fill-rule="evenodd" clip-rule="evenodd" d="M5.64416 16.0601H9.72612C11.4168 16.0601 12.7873 17.3503 12.7873 18.9431V22.7848C12.7873 24.3765 11.4168 25.6667 9.72612 25.6667H5.64416C3.95348 25.6667 2.58301 24.3765 2.58301 22.7848V18.9431C2.58301 17.3503 3.95348 16.0601 5.64416 16.0601Z" stroke="white" stroke-width="1.5" stroke-linecap="round" stroke-linejoin="round"/>
<path fill-rule="evenodd" clip-rule="evenodd" d="M20.4401 16.0601H24.5233C26.2127 16.0601 27.5832 17.3503 27.5832 18.9431V22.7848C27.5832 24.3765 26.2127 25.6667 24.5233 25.6667H20.4401C18.7494 25.6667 17.3789 24.3765 17.3789 22.7848V18.9431C17.3789 17.3503 18.7494 16.0601 20.4401 16.0601Z" stroke="white" stroke-width="1.5" stroke-linecap="round" stroke-linejoin="round"/>
</svg>
