<svg width="20" height="20" viewBox="0 0 20 20" fill="none" xmlns="http://www.w3.org/2000/svg">
<path d="M9.99157 19.949C4.66666 19.9444 0.279332 15.7679 0.0127405 10.4497C-0.253851 5.13142 3.69381 0.537084 8.99157 0V12C3 12 1 12 4.00571 10.2845C4.17594 13.3318 5.45269 15.8298 8.5 16C6 17.5 1.49142 13.9584 2 10.949H19.9406C19.4204 16.0555 15.1245 19.9421 9.99157 19.949ZM19.9416 8.949H10.9916C10.9916 3 10.9916 8.949 10.9916 7.5V0C15.7186 0.483982 19.4561 4.22098 19.9406 8.948L19.9416 8.949Z" fill="white"/>
</svg>
