<svg width="19" height="22" viewBox="0 0 19 22" fill="none" xmlns="http://www.w3.org/2000/svg">
<path d="M1.24257 18.1675C0.532566 19.0137 0.642934 20.2752 1.48908 20.9852C2.33523 21.6952 3.59674 21.5848 4.30675 20.7387L1.24257 18.1675ZM18.5321 3.78558C19.2421 2.93943 19.1317 1.67791 18.2856 0.967911C17.4394 0.257908 16.1779 0.368275 15.4679 1.21442L18.5321 3.78558ZM15.468 20.7387C16.178 21.5848 17.4395 21.6952 18.2857 20.9852C19.1318 20.2752 19.2422 19.0137 18.5322 18.1675L15.468 20.7387ZM4.30684 1.21442C3.59684 0.368275 2.33532 0.257908 1.48918 0.967911C0.643026 1.67791 0.532658 2.93943 1.24266 3.78558L4.30684 1.21442ZM4.30675 20.7387L11.4195 12.2621L8.35528 9.69092L1.24257 18.1675L4.30675 20.7387ZM11.4195 12.2621L18.5321 3.78558L15.4679 1.21442L8.35528 9.69092L11.4195 12.2621ZM18.5322 18.1675L11.4195 9.69092L8.35528 12.2621L15.468 20.7387L18.5322 18.1675ZM11.4195 9.69092L4.30684 1.21442L1.24266 3.78558L8.35528 12.2621L11.4195 9.69092Z" fill="#F1F1F1"/>
</svg>
