<svg width="38" height="34" viewBox="0 0 38 34" fill="none" xmlns="http://www.w3.org/2000/svg">
<path fill-rule="evenodd" clip-rule="evenodd" d="M17.0761 0.333984C13.2438 0.333984 10.1671 3.89738 10.1671 8.3337C10.1671 12.7712 13.2438 16.335 17.0761 16.335C20.907 16.335 23.9852 12.7712 23.9852 8.3337C23.9852 3.89738 20.907 0.333984 17.0761 0.333984ZM17.0761 2.93792C19.6655 2.93792 21.7362 5.3355 21.7362 8.3337C21.7362 11.3333 19.6655 13.731 17.0761 13.731C14.4867 13.731 12.4162 11.3333 12.4162 8.3337C12.4162 5.3355 14.4867 2.93792 17.0761 2.93792ZM8.60773 1.96903C9.22847 1.96903 9.73225 2.55195 9.73225 3.271C9.73225 3.99006 9.22847 4.57296 8.60773 4.57296C6.82649 4.57296 5.38114 6.24535 5.38114 8.30744C5.38114 10.3695 6.82649 12.042 8.60773 12.042C9.22847 12.042 9.73225 12.6249 9.73225 13.3439C9.73225 14.063 9.22847 14.6459 8.60773 14.6459C5.58352 14.6459 3.13211 11.808 3.13211 8.30744C3.13211 4.80699 5.58352 1.96903 8.60773 1.96903ZM31.0337 8.30744C31.0337 4.80699 28.5822 1.96903 25.558 1.96903C24.9372 1.96903 24.4335 2.55195 24.4335 3.271C24.4335 3.99006 24.9372 4.57296 25.558 4.57296C27.3392 4.57296 28.7847 6.24535 28.7847 8.30744C28.7847 10.3695 27.3392 12.042 25.558 12.042C24.9372 12.042 24.4335 12.6249 24.4335 13.3439C24.4335 14.063 24.9372 14.6459 25.558 14.6459C28.5822 14.6459 31.0337 11.808 31.0337 8.30744ZM29.9076 17.8975C29.1879 17.7093 28.4173 17.5807 27.6362 17.5182C27.0154 17.4687 26.4787 18.0102 26.4367 18.7275C26.3932 19.4449 26.861 20.0666 27.4802 20.1161C28.1504 20.1695 28.8071 20.2791 29.4444 20.4454C30.437 20.6707 31.0832 21.0445 31.2436 21.4338C31.3651 21.7279 31.365 22.0735 31.2421 22.3711C31.0846 22.7566 30.4429 23.1283 29.4653 23.3613C28.8566 23.506 28.4653 24.1943 28.5897 24.8988C28.7157 25.6031 29.3094 26.0567 29.9181 25.9117C31.5345 25.5269 32.719 24.8406 33.2738 23.4883C33.6861 22.4829 33.6861 21.3168 33.2738 20.314C32.7145 18.9566 31.5104 18.2609 29.9076 17.8975ZM7.72911 18.7275C7.68713 18.0102 7.14888 17.4687 6.52964 17.5182C5.74697 17.5807 4.97779 17.7093 4.22661 17.905L3.91775 17.9808C2.49636 18.3567 1.41231 19.0474 0.892035 20.3138C0.479712 21.3158 0.479768 22.4839 0.893591 23.4894C1.44685 24.8403 2.62985 25.5267 4.24766 25.9117C4.8564 26.0567 5.45012 25.6031 5.57607 24.8988C5.70052 24.1943 5.30921 23.506 4.70047 23.3613C3.72288 23.1285 3.08266 22.757 2.92373 22.3712C2.80078 22.0725 2.80073 21.7289 2.92217 21.4345C3.0826 21.0441 3.72885 20.6707 4.68994 20.4528L5.18924 20.3345C5.68853 20.2279 6.18183 20.1562 6.68411 20.1161C7.30485 20.0666 7.77259 19.4449 7.72911 18.7275ZM6.92397 24.1982C6.92397 20.0563 10.6244 18.5997 17.0761 18.5997L17.5334 18.6023C23.7153 18.6695 27.2268 20.1294 27.2268 24.168C27.2268 28.1115 23.8697 29.6216 17.9787 29.7563L17.0761 29.7664C10.6094 29.7664 6.92397 28.3355 6.92397 24.1982ZM24.9778 24.168C24.9778 22.2402 22.3089 21.2036 17.0761 21.2036C11.8479 21.2036 9.17301 22.2567 9.17301 24.1982C9.17301 26.1263 11.8419 27.1625 17.0761 27.1625C22.3014 27.1625 24.9778 26.1088 24.9778 24.168Z" fill="#F1F1F1"/>
</svg>
