<svg width="40" height="34" viewBox="0 0 40 34" fill="none" xmlns="http://www.w3.org/2000/svg">
<path fill-rule="evenodd" clip-rule="evenodd" d="M17.5759 0.166992C13.6274 0.166992 10.4576 3.92017 10.4576 8.59277C10.4576 13.2667 13.6274 17.0202 17.5759 17.0202C21.5229 17.0202 24.6944 13.2667 24.6944 8.59277C24.6944 3.92017 21.5229 0.166992 17.5759 0.166992ZM17.5759 2.90961C20.2438 2.90961 22.3772 5.43489 22.3772 8.59277C22.3772 11.7521 20.2438 14.2776 17.5759 14.2776C14.9081 14.2776 12.7747 11.7521 12.7747 8.59277C12.7747 5.43489 14.9081 2.90961 17.5759 2.90961ZM8.85091 1.88912C9.49045 1.88912 10.0095 2.50308 10.0095 3.26043C10.0095 4.01779 9.49045 4.63174 8.85091 4.63174C7.01569 4.63174 5.52654 6.39319 5.52654 8.56511C5.52654 10.737 7.01569 12.4985 8.85091 12.4985C9.49045 12.4985 10.0095 13.1125 10.0095 13.8698C10.0095 14.6272 9.49045 15.2412 8.85091 15.2412C5.73505 15.2412 3.20935 12.2521 3.20935 8.56511C3.20935 4.87823 5.73505 1.88912 8.85091 1.88912ZM31.9564 8.56511C31.9564 4.87823 29.4306 1.88912 26.3148 1.88912C25.6752 1.88912 25.1562 2.50308 25.1562 3.26043C25.1562 4.01779 25.6752 4.63174 26.3148 4.63174C28.15 4.63174 29.6393 6.39319 29.6393 8.56511C29.6393 10.737 28.15 12.4985 26.3148 12.4985C25.6752 12.4985 25.1562 13.1125 25.1562 13.8698C25.1562 14.6272 25.6752 15.2412 26.3148 15.2412C29.4306 15.2412 31.9564 12.2521 31.9564 8.56511ZM30.7962 18.666C30.0547 18.4678 29.2608 18.3323 28.456 18.2664C27.8164 18.2143 27.2634 18.7846 27.2201 19.5401C27.1753 20.2958 27.6573 20.9506 28.2953 21.0027C28.9858 21.059 29.6624 21.1744 30.319 21.3495C31.3416 21.5868 32.0074 21.9805 32.1727 22.3906C32.2979 22.7003 32.2978 23.0644 32.1711 23.3778C32.0089 23.7839 31.3478 24.1753 30.3406 24.4207C29.7134 24.5732 29.3102 25.2982 29.4384 26.0401C29.5682 26.7819 30.1799 27.2597 30.8071 27.107C32.4724 26.7016 33.6928 25.9789 34.2644 24.5545C34.6892 23.4955 34.6892 22.2674 34.2644 21.2111C33.6882 19.7815 32.4476 19.0486 30.7962 18.666ZM7.94566 19.5401C7.9024 18.7846 7.34784 18.2143 6.70984 18.2664C5.90346 18.3323 5.11096 18.4678 4.33702 18.6738L4.0188 18.7537C2.55434 19.1496 1.43744 19.8771 0.9014 21.2109C0.476581 22.2663 0.476639 23.4966 0.903003 24.5556C1.47303 25.9785 2.69187 26.7015 4.35871 27.107C4.98589 27.2597 5.59761 26.7819 5.72737 26.0401C5.85559 25.2982 5.45242 24.5732 4.82524 24.4207C3.81803 24.1755 3.15841 23.7842 2.99466 23.378C2.86799 23.0633 2.86793 22.7014 2.99306 22.3913C3.15835 21.9801 3.82418 21.5868 4.81439 21.3574L5.32882 21.2327C5.84324 21.1204 6.35149 21.0449 6.869 21.0027C7.50854 20.9506 7.99046 20.2958 7.94566 19.5401ZM7.11612 25.3022C7.11612 20.9398 10.9287 19.4055 17.5759 19.4055L18.0471 19.4083C24.4163 19.4791 28.0342 21.0167 28.0342 25.2704C28.0342 29.424 24.5754 31.0145 18.5059 31.1564L17.5759 31.167C10.9132 31.167 7.11612 29.6598 7.11612 25.3022ZM25.717 25.2704C25.717 23.2399 22.9673 22.1482 17.5759 22.1482C12.1892 22.1482 9.43331 23.2573 9.43331 25.3022C9.43331 27.333 12.183 28.4244 17.5759 28.4244C22.9595 28.4244 25.717 27.3145 25.717 25.2704Z" fill="#F1F1F1"/>
<path d="M38.6602 27.667C38.6602 30.4284 36.4216 32.667 33.6602 32.667C30.8987 32.667 28.6602 30.4284 28.6602 27.667C28.6602 24.9056 30.8987 22.667 33.6602 22.667C36.4216 22.667 38.6602 24.9056 38.6602 27.667Z" fill="#04C500" stroke="#333333"/>
</svg>
