<svg width="35" height="32" viewBox="0 0 35 32" fill="none" xmlns="http://www.w3.org/2000/svg">
<path fill-rule="evenodd" clip-rule="evenodd" d="M23.114 3.3342C24.0342 3.3342 24.9529 3.45286 25.8265 3.72086C31.2092 5.32086 33.1487 10.7209 31.5285 15.4409C30.6098 17.8529 29.1077 20.0542 27.1404 21.8529C24.3244 24.3462 21.2342 26.5595 17.9077 28.4662L17.5431 28.6675L17.164 28.4529C13.8258 26.5595 10.7181 24.3462 7.87583 21.8395C5.92166 20.0409 4.41812 17.8529 3.48479 15.4409C1.83687 10.7209 3.77646 5.32086 9.2175 3.69286C9.64042 3.55953 10.0765 3.4662 10.514 3.4142H10.689C11.0987 3.35953 11.5056 3.3342 11.914 3.3342H12.0744C12.9931 3.35953 13.8827 3.5062 14.7446 3.7742H14.8306C14.889 3.79953 14.9327 3.82753 14.9619 3.85286C15.2842 3.94753 15.589 4.0542 15.8806 4.20086L16.4348 4.42753C16.5687 4.49283 16.719 4.5926 16.8489 4.67882C16.9312 4.73346 17.0053 4.78265 17.0619 4.8142C17.0857 4.82704 17.1099 4.83995 17.1343 4.85296C17.2593 4.9197 17.3895 4.98921 17.4994 5.0662C19.1196 3.9342 21.0869 3.32086 23.114 3.3342ZM26.9931 12.9342C27.591 12.9195 28.1015 12.4809 28.1452 11.9195V11.7609C28.189 9.89286 26.9508 8.20086 25.0681 7.54753C24.4702 7.35953 23.814 7.6542 23.5952 8.2142C23.391 8.7742 23.7119 9.38753 24.3244 9.5862C25.2592 9.9062 25.8848 10.7475 25.8848 11.6795V11.7209C25.8571 12.0262 25.9577 12.3209 26.1619 12.5475C26.366 12.7742 26.6723 12.9062 26.9931 12.9342Z" fill="#F1F1F1"/>
</svg>
