<svg width="35" height="32" viewBox="0 0 35 32" fill="none" xmlns="http://www.w3.org/2000/svg">
<path fill-rule="evenodd" clip-rule="evenodd" d="M17.1511 27.805C13.9857 26.0239 11.0409 23.9275 8.36947 21.5536C6.49135 19.8439 5.06156 17.7597 4.18961 15.4605C2.62051 11.0004 4.45332 5.89444 9.58256 4.38336C12.2783 3.58991 15.2224 4.0434 17.494 5.60197C19.7664 4.0453 22.7095 3.59197 25.4054 4.38336C30.5346 5.89444 32.3806 11.0004 30.8115 15.4605C29.9396 17.7597 28.5098 19.8439 26.6317 21.5536C23.9603 23.9275 21.0155 26.0239 17.85 27.805L17.5072 28L17.1511 27.805Z" stroke="white" stroke-width="1.5" stroke-linecap="round" stroke-linejoin="round"/>
<path d="M22.9531 9.40405C24.5067 9.85779 25.6105 11.133 25.7485 12.6334" stroke="white" stroke-width="1.5" stroke-linecap="round" stroke-linejoin="round"/>
</svg>
