<svg width="28" height="29" viewBox="0 0 28 29" fill="none" xmlns="http://www.w3.org/2000/svg">
<path d="M10.2923 26.5285V22.4396C10.2923 21.3995 11.1402 20.5544 12.1907 20.5475H16.0388C17.0943 20.5475 17.95 21.3946 17.95 22.4396V22.4396V26.5412C17.9498 27.4243 18.6617 28.146 19.5534 28.1667H22.1188C24.6762 28.1667 26.7493 26.1142 26.7493 23.5824V23.5824V11.9504C26.7357 10.9544 26.2633 10.0191 25.4666 9.41071L16.693 2.41373C15.1559 1.19542 12.971 1.19542 11.4339 2.41373L2.69872 9.42341C1.89903 10.0294 1.42586 10.9662 1.41602 11.9631V23.5824C1.41602 26.1142 3.48918 28.1667 6.04656 28.1667H8.61196C9.52582 28.1667 10.2666 27.4333 10.2666 26.5285V26.5285" stroke="white" stroke-width="1.5" stroke-linecap="round" stroke-linejoin="round"/>
</svg>
