<svg width="28" height="21" viewBox="0 0 28 21" fill="none" xmlns="http://www.w3.org/2000/svg">
<path d="M1.83496 11.7025C1.83496 7.18342 5.8607 3.52 10.8267 3.52H18.0201M26.5622 9.86142C26.5622 14.3805 22.5365 18.0439 17.5705 18.0439H10.3771M19.9275 5.15049L21.835 3.41472L19.9275 1.67896M8.23827 16.4074L6.33083 18.1432L8.23827 19.879" stroke="#191414" stroke-width="2" stroke-linecap="round" stroke-linejoin="round"/>
<path d="M1.83496 11.7025C1.83496 7.18342 5.8607 3.52 10.8267 3.52H18.0201M26.5622 9.86142C26.5622 14.3805 22.5365 18.0439 17.5705 18.0439H10.3771M19.9275 5.15049L21.835 3.41472L19.9275 1.67896M8.23827 16.4074L6.33083 18.1432L8.23827 19.879" stroke="#F1F1F1" stroke-width="2" stroke-linecap="round" stroke-linejoin="round"/>
</svg>
