<svg width="121" height="140" viewBox="0 0 121 140" fill="none" xmlns="http://www.w3.org/2000/svg">
<path d="M114.944 109.142L104.113 98.311L111.629 90.7948L57.1827 28.6217C57.1939 21.1335 54.259 13.8909 48.9863 8.52705C37.9914 -2.65932 19.902 -2.86628 8.66307 8.06494C3.13088 13.4455 0.0546301 20.6556 0.000713277 28.3671C-0.0529312 36.0802 2.92093 43.3311 8.37443 48.7849C13.7498 54.1603 21.0375 57.1578 28.5992 57.1575H28.6471L90.82 111.604L98.3365 104.088L109.168 114.92C112.502 118.254 112.426 122.495 111.243 125.351C110.059 128.208 107.115 131.261 102.399 131.261C100.837 131.261 99.282 130.873 97.9027 130.139L76.0403 118.509C55.8849 107.787 31.8203 107.789 11.6669 118.514L2.16528 123.57L6.00318 130.782L15.5048 125.726C33.2557 116.28 54.4512 116.278 72.2037 125.721L94.0662 137.351C96.6223 138.711 99.5036 139.43 102.399 139.43C109.711 139.43 115.992 135.233 118.79 128.477C121.588 121.721 120.115 114.313 114.944 109.142V109.142ZM63.64 48.3955L48.4207 63.6148L36.1021 52.827L52.852 36.0772L63.64 48.3955ZM49.0054 28.3711L28.3963 48.9802C24.4441 48.9407 20.6032 47.7575 17.335 45.6L45.6244 17.3109C47.7808 20.5785 48.9656 24.4205 49.0054 28.3711V28.3711ZM8.16938 28.4234C8.20777 22.9155 10.4056 17.7651 14.3584 13.9206C21.3392 7.13093 32.0188 6.36193 39.8507 11.5314L11.5498 39.8325C9.3226 36.4802 8.14079 32.5445 8.16938 28.4234V28.4234ZM90.4497 100.421L54.58 69.0086L69.0338 54.5548L100.446 90.4247L90.4497 100.421Z" fill="#F1F1F1"/>
</svg>
