<svg width="152" height="200" viewBox="0 0 152 200" fill="none" xmlns="http://www.w3.org/2000/svg">
<path d="M109.477 14.524C104.979 13.6585 100.581 16.8848 99.7179 21.3706L82.8835 108.86C82.452 111.103 79.9906 111.797 78.2419 110.293C71.5236 104.348 62.6428 100.603 52.8811 99.8836C33.0297 98.6882 14.8543 111.473 9.21991 130.163C1.34312 155.988 18.7442 182.016 45.1671 185.354C67.6595 187.935 88.231 171.829 92.4929 149.679L114.671 34.4204C123.84 39.678 129.074 50.2784 126.968 61.222C126.322 64.5821 127.649 68.322 130.795 70.0948C136.206 73.7514 142.677 70.3446 143.755 64.7416C148.233 41.4664 132.826 18.727 109.477 14.524ZM55.0339 117.457C69.0617 120.156 78.1347 133.54 75.4378 147.556C72.7393 161.581 59.3491 170.634 45.3213 167.935C31.285 165.234 22.2189 151.86 24.9174 137.835C27.6143 123.82 40.9977 114.756 55.0339 117.457Z" fill="white"/>
</svg>
