<svg width="23" height="24" viewBox="0 0 23 24" fill="none" xmlns="http://www.w3.org/2000/svg">
<path d="M6 6.71327V5.61327C5.39249 5.61327 4.9 6.10576 4.9 6.71327H6ZM10.0427 6.71327V7.81327C10.2661 7.81327 10.4843 7.74521 10.6681 7.61814L10.0427 6.71327ZM10.0427 17.9775L10.6017 17.0301C10.4323 16.9302 10.2393 16.8775 10.0427 16.8775V17.9775ZM6 17.9775H4.9C4.9 18.585 5.39249 19.0775 6 19.0775V17.9775ZM16.8607 2.00049L17.9566 2.09536C17.9934 1.67084 17.7816 1.26328 17.4132 1.04928C17.0447 0.835275 16.5858 0.853329 16.2352 1.09562L16.8607 2.00049ZM16.8607 22.0005L16.3017 22.9479C16.66 23.1593 17.107 23.1505 17.4567 22.9251C17.8064 22.6997 17.999 22.2963 17.9544 21.8826L16.8607 22.0005ZM1.5291 15.0059C0.980072 15.266 0.74582 15.9219 1.00589 16.4709C1.26596 17.0199 1.92186 17.2542 2.4709 16.9941L1.5291 15.0059ZM21.4709 7.99411C22.0199 7.73404 22.2542 7.07814 21.9941 6.5291C21.734 5.98007 21.0781 5.74582 20.5291 6.00589L21.4709 7.99411ZM6 7.81327H10.0427V5.61327H6V7.81327ZM10.0427 16.8775H6V19.0775H10.0427V16.8775ZM7.1 17.9775V6.71327H4.9V17.9775H7.1ZM10.6681 7.61814L17.4862 2.90536L16.2352 1.09562L9.4172 5.8084L10.6681 7.61814ZM9.48367 18.9249L16.3017 22.9479L17.4197 21.0531L10.6017 17.0301L9.48367 18.9249ZM17.9544 21.8826C17.3139 15.9395 17.0829 13.83 17.1192 11.7953C17.1561 9.72093 17.4638 7.7881 17.9566 2.09536L15.7648 1.90562C15.2869 7.42584 14.9581 9.58679 14.9195 11.7561C14.8802 13.965 15.1345 16.2491 15.767 22.1183L17.9544 21.8826ZM2.4709 16.9941L21.4709 7.99411L20.5291 6.00589L1.5291 15.0059L2.4709 16.9941Z" fill="#191414"/>
<path d="M6 6.71327V5.61327C5.39249 5.61327 4.9 6.10576 4.9 6.71327H6ZM10.0427 6.71327V7.81327C10.2661 7.81327 10.4843 7.74521 10.6681 7.61814L10.0427 6.71327ZM10.0427 17.9775L10.6017 17.0301C10.4323 16.9302 10.2393 16.8775 10.0427 16.8775V17.9775ZM6 17.9775H4.9C4.9 18.585 5.39249 19.0775 6 19.0775V17.9775ZM16.8607 2.00049L17.9566 2.09536C17.9934 1.67084 17.7816 1.26328 17.4132 1.04928C17.0447 0.835275 16.5858 0.853329 16.2352 1.09562L16.8607 2.00049ZM16.8607 22.0005L16.3017 22.9479C16.66 23.1593 17.107 23.1505 17.4567 22.9251C17.8064 22.6997 17.999 22.2963 17.9544 21.8826L16.8607 22.0005ZM1.5291 15.0059C0.980072 15.266 0.74582 15.9219 1.00589 16.4709C1.26596 17.0199 1.92186 17.2542 2.4709 16.9941L1.5291 15.0059ZM21.4709 7.99411C22.0199 7.73404 22.2542 7.07814 21.9941 6.5291C21.734 5.98007 21.0781 5.74582 20.5291 6.00589L21.4709 7.99411ZM6 7.81327H10.0427V5.61327H6V7.81327ZM10.0427 16.8775H6V19.0775H10.0427V16.8775ZM7.1 17.9775V6.71327H4.9V17.9775H7.1ZM10.6681 7.61814L17.4862 2.90536L16.2352 1.09562L9.4172 5.8084L10.6681 7.61814ZM9.48367 18.9249L16.3017 22.9479L17.4197 21.0531L10.6017 17.0301L9.48367 18.9249ZM17.9544 21.8826C17.3139 15.9395 17.0829 13.83 17.1192 11.7953C17.1561 9.72093 17.4638 7.7881 17.9566 2.09536L15.7648 1.90562C15.2869 7.42584 14.9581 9.58679 14.9195 11.7561C14.8802 13.965 15.1345 16.2491 15.767 22.1183L17.9544 21.8826ZM2.4709 16.9941L21.4709 7.99411L20.5291 6.00589L1.5291 15.0059L2.4709 16.9941Z" fill="#F1F1F1"/>
</svg>
