<svg width="31" height="31" viewBox="0 0 31 31" fill="none" xmlns="http://www.w3.org/2000/svg">
<path d="M25.583 6.68319C25.583 5.93858 26.1866 5.33496 26.9312 5.33496H27.1439C27.8885 5.33496 28.4921 5.93859 28.4921 6.68319V23.9867C28.4921 24.7313 27.8885 25.335 27.1439 25.335H26.9312C26.1866 25.335 25.583 24.7313 25.583 23.9867V6.68319Z" fill="#191414"/>
<path d="M25.583 6.68319C25.583 5.93858 26.1866 5.33496 26.9312 5.33496H27.1439C27.8885 5.33496 28.4921 5.93859 28.4921 6.68319V23.9867C28.4921 24.7313 27.8885 25.335 27.1439 25.335H26.9312C26.1866 25.335 25.583 24.7313 25.583 23.9867V6.68319Z" fill="#F1F1F1"/>
<path d="M25.333 16.634L11.833 24.4282C10.833 25.0056 9.58301 24.2839 9.58301 23.1292L9.58301 7.54073C9.58301 6.38603 10.833 5.66434 11.833 6.24169L25.333 14.0359C26.333 14.6133 26.333 16.0566 25.333 16.634Z" stroke="#191414" stroke-width="3"/>
<path d="M25.333 16.634L11.833 24.4282C10.833 25.0056 9.58301 24.2839 9.58301 23.1292L9.58301 7.54073C9.58301 6.38603 10.833 5.66434 11.833 6.24169L25.333 14.0359C26.333 14.6133 26.333 16.0566 25.333 16.634Z" stroke="#F1F1F1" stroke-width="3"/>
</svg>
