<svg width="20" height="31" viewBox="0 0 20 31" fill="none" xmlns="http://www.w3.org/2000/svg">
<path d="M19.0623 2.00562C19.0623 0.901046 18.1669 0.00561523 17.0623 0.00561523C15.9577 0.00561523 15.0623 0.901046 15.0623 2.00562H19.0623ZM15.0623 28.289C15.0623 29.3936 15.9577 30.289 17.0623 30.289C18.1669 30.289 19.0623 29.3936 19.0623 28.289H15.0623ZM0 28.289C0 29.3936 0.895431 30.289 2 30.289C3.10457 30.289 4 29.3936 4 28.289H0ZM4 2.00562C4 0.901046 3.10457 0.00561523 2 0.00561523C0.895431 0.00561523 0 0.901046 0 2.00562H4ZM15.0623 2.00562V28.289H19.0623V2.00562H15.0623ZM4 28.289V2.00562H0V28.289H4Z" fill="#F1F1F1"/>
</svg>
