<svg width="31" height="31" viewBox="0 0 31 31" fill="none" xmlns="http://www.w3.org/2000/svg">
<path d="M5.58301 24.3197C5.58301 25.0643 4.97938 25.668 4.23478 25.668L4.02215 25.668C3.27754 25.668 2.67392 25.0643 2.67392 24.3197L2.67392 7.0162C2.67392 6.27159 3.27754 5.66797 4.02215 5.66797L4.23478 5.66797C4.97939 5.66797 5.58301 6.27159 5.58301 7.0162L5.58301 24.3197Z" fill="#191414"/>
<path d="M5.58301 24.3197C5.58301 25.0643 4.97938 25.668 4.23478 25.668L4.02215 25.668C3.27754 25.668 2.67392 25.0643 2.67392 24.3197L2.67392 7.0162C2.67392 6.27159 3.27754 5.66797 4.02215 5.66797L4.23478 5.66797C4.97939 5.66797 5.58301 6.27159 5.58301 7.0162L5.58301 24.3197Z" fill="#F1F1F1"/>
<path d="M5.83301 14.3689L19.333 6.5747C20.333 5.99735 21.583 6.71904 21.583 7.87374L21.583 23.4622C21.583 24.6169 20.333 25.3386 19.333 24.7612L5.83301 16.967C4.83301 16.3897 4.83301 14.9463 5.83301 14.3689Z" stroke="#191414" stroke-width="3"/>
<path d="M5.83301 14.3689L19.333 6.5747C20.333 5.99735 21.583 6.71904 21.583 7.87374L21.583 23.4622C21.583 24.6169 20.333 25.3386 19.333 24.7612L5.83301 16.967C4.83301 16.3897 4.83301 14.9463 5.83301 14.3689Z" stroke="#F1F1F1" stroke-width="3"/>
</svg>
