<svg width="26" height="25" viewBox="0 0 26 25" fill="none" xmlns="http://www.w3.org/2000/svg">
<path d="M12.8637 4.75942C12.2562 4.75942 11.7637 5.25191 11.7637 5.85942C11.7637 6.46693 12.2562 6.95942 12.8637 6.95942V4.75942ZM24.0383 6.95942C24.6458 6.95942 25.1383 6.46693 25.1383 5.85942C25.1383 5.25191 24.6458 4.75942 24.0383 4.75942V6.95942ZM6.57796 14.188C5.97045 14.188 5.47796 14.6805 5.47796 15.288C5.47796 15.8955 5.97045 16.388 6.57796 16.388V14.188ZM24.0383 16.388C24.6458 16.388 25.1383 15.8955 25.1383 15.288C25.1383 14.6805 24.6458 14.188 24.0383 14.188V16.388ZM4.48272 22.5689C3.87521 22.5689 3.38272 23.0614 3.38272 23.6689C3.38272 24.2765 3.87521 24.7689 4.48272 24.7689V22.5689ZM24.0383 24.7689C24.6458 24.7689 25.1383 24.2765 25.1383 23.6689C25.1383 23.0614 24.6458 22.5689 24.0383 22.5689V24.7689ZM5.46586 5.82718L6.24367 6.605C6.44996 6.39871 6.56586 6.11892 6.56586 5.82718C6.56586 5.53545 6.44996 5.25566 6.24367 5.04937L5.46586 5.82718ZM0.5298 9.2076C0.100223 9.63718 0.100223 10.3337 0.5298 10.7632C0.959376 11.1928 1.65586 11.1928 2.08543 10.7632L0.5298 9.2076ZM2.08543 0.891128C1.65586 0.461551 0.959376 0.461551 0.5298 0.891128C0.100223 1.3207 0.100223 2.01719 0.5298 2.44676L2.08543 0.891128ZM12.8637 6.95942H24.0383V4.75942H12.8637V6.95942ZM6.57796 16.388H24.0383V14.188H6.57796V16.388ZM4.48272 24.7689H24.0383V22.5689H4.48272V24.7689ZM4.68804 5.04937L0.5298 9.2076L2.08543 10.7632L6.24367 6.605L4.68804 5.04937ZM0.5298 2.44676L4.68804 6.605L6.24367 5.04937L2.08543 0.891128L0.5298 2.44676Z" fill="#191414"/>
<path d="M12.8637 4.75942C12.2562 4.75942 11.7637 5.25191 11.7637 5.85942C11.7637 6.46693 12.2562 6.95942 12.8637 6.95942V4.75942ZM24.0383 6.95942C24.6458 6.95942 25.1383 6.46693 25.1383 5.85942C25.1383 5.25191 24.6458 4.75942 24.0383 4.75942V6.95942ZM6.57796 14.188C5.97045 14.188 5.47796 14.6805 5.47796 15.288C5.47796 15.8955 5.97045 16.388 6.57796 16.388V14.188ZM24.0383 16.388C24.6458 16.388 25.1383 15.8955 25.1383 15.288C25.1383 14.6805 24.6458 14.188 24.0383 14.188V16.388ZM4.48272 22.5689C3.87521 22.5689 3.38272 23.0614 3.38272 23.6689C3.38272 24.2765 3.87521 24.7689 4.48272 24.7689V22.5689ZM24.0383 24.7689C24.6458 24.7689 25.1383 24.2765 25.1383 23.6689C25.1383 23.0614 24.6458 22.5689 24.0383 22.5689V24.7689ZM5.46586 5.82718L6.24367 6.605C6.44996 6.39871 6.56586 6.11892 6.56586 5.82718C6.56586 5.53545 6.44996 5.25566 6.24367 5.04937L5.46586 5.82718ZM0.5298 9.2076C0.100223 9.63718 0.100223 10.3337 0.5298 10.7632C0.959376 11.1928 1.65586 11.1928 2.08543 10.7632L0.5298 9.2076ZM2.08543 0.891128C1.65586 0.461551 0.959376 0.461551 0.5298 0.891128C0.100223 1.3207 0.100223 2.01719 0.5298 2.44676L2.08543 0.891128ZM12.8637 6.95942H24.0383V4.75942H12.8637V6.95942ZM6.57796 16.388H24.0383V14.188H6.57796V16.388ZM4.48272 24.7689H24.0383V22.5689H4.48272V24.7689ZM4.68804 5.04937L0.5298 9.2076L2.08543 10.7632L6.24367 6.605L4.68804 5.04937ZM0.5298 2.44676L4.68804 6.605L6.24367 5.04937L2.08543 0.891128L0.5298 2.44676Z" fill="#F1F1F1"/>
</svg>
