<svg width="19" height="25" viewBox="0 0 19 25" fill="none" xmlns="http://www.w3.org/2000/svg">
<path fill-rule="evenodd" clip-rule="evenodd" d="M9.57363 1.9743C5.03923 1.9743 1.36337 5.68952 1.36337 10.2725C1.36337 14.8554 5.03923 18.5706 9.57363 18.5706C14.108 18.5706 17.7839 14.8554 17.7839 10.2725C17.7839 5.68952 14.108 1.9743 9.57363 1.9743ZM0.397461 10.2725C0.397461 5.15035 4.50577 0.998047 9.57363 0.998047C14.6415 0.998047 18.7498 5.15035 18.7498 10.2725C18.7498 13.1062 17.4924 15.6431 15.5107 17.3443C15.0925 17.7033 14.9717 18.3203 15.2823 18.7757L18.8772 24.0476C19.0269 24.2672 18.9718 24.5664 18.7538 24.7183V24.7183C18.5326 24.8723 18.2282 24.8163 18.0764 24.5937L14.4003 19.2026C14.1116 18.7793 13.5517 18.6485 13.079 18.8462C11.999 19.2977 10.8151 19.5469 9.57363 19.5469C4.50577 19.5469 0.397461 15.3946 0.397461 10.2725Z" fill="#191414"/>
<path fill-rule="evenodd" clip-rule="evenodd" d="M9.57363 1.9743C5.03923 1.9743 1.36337 5.68952 1.36337 10.2725C1.36337 14.8554 5.03923 18.5706 9.57363 18.5706C14.108 18.5706 17.7839 14.8554 17.7839 10.2725C17.7839 5.68952 14.108 1.9743 9.57363 1.9743ZM0.397461 10.2725C0.397461 5.15035 4.50577 0.998047 9.57363 0.998047C14.6415 0.998047 18.7498 5.15035 18.7498 10.2725C18.7498 13.1062 17.4924 15.6431 15.5107 17.3443C15.0925 17.7033 14.9717 18.3203 15.2823 18.7757L18.8772 24.0476C19.0269 24.2672 18.9718 24.5664 18.7538 24.7183V24.7183C18.5326 24.8723 18.2282 24.8163 18.0764 24.5937L14.4003 19.2026C14.1116 18.7793 13.5517 18.6485 13.079 18.8462C11.999 19.2977 10.8151 19.5469 9.57363 19.5469C4.50577 19.5469 0.397461 15.3946 0.397461 10.2725Z" fill="#F1F1F1"/>
</svg>
