<svg width="25" height="17" viewBox="0 0 25 17" fill="none" xmlns="http://www.w3.org/2000/svg">
<path d="M23.3499 3.08915L24.0229 3.82876C24.2312 3.63925 24.3499 3.37072 24.3499 3.08915C24.3499 2.80758 24.2312 2.53905 24.0229 2.34954L23.3499 3.08915ZM21.3469 3.55979C20.9384 3.9315 20.9086 4.56396 21.2803 4.97243C21.652 5.38091 22.2845 5.41071 22.693 5.039L21.3469 3.55979ZM22.693 1.1393C22.2845 0.767591 21.652 0.797393 21.2803 1.20587C20.9086 1.61434 20.9384 2.2468 21.3469 2.61851L22.693 1.1393ZM23.3279 14.3287L24.001 15.0683C24.2092 14.8787 24.3279 14.6102 24.3279 14.3287C24.3279 14.0471 24.2092 13.7786 24.001 13.589L23.3279 14.3287ZM21.3359 14.7893C20.9274 15.161 20.8976 15.7935 21.2694 16.2019C21.6411 16.6104 22.2735 16.6402 22.682 16.2685L21.3359 14.7893ZM22.682 12.3888C22.2735 12.0171 21.6411 12.0469 21.2694 12.4554C20.8976 12.8638 20.9274 13.4963 21.3359 13.868L22.682 12.3888ZM1.21973 2.28509C0.667442 2.28509 0.219727 2.7328 0.219727 3.28509C0.219727 3.83737 0.667442 4.28509 1.21973 4.28509V2.28509ZM20.9878 15.3939C21.5401 15.4001 21.9928 14.9574 21.999 14.4052C22.0052 13.8529 21.5625 13.4002 21.0103 13.394L20.9878 15.3939ZM20.999 4.14447C21.5513 4.14447 21.999 3.69676 21.999 3.14447C21.999 2.59219 21.5513 2.14447 20.999 2.14447V4.14447ZM1.21973 13.5346C0.667442 13.5346 0.219727 13.9823 0.219727 14.5346C0.219727 15.0869 0.667442 15.5346 1.21973 15.5346V13.5346ZM22.6768 2.34954L21.3469 3.55979L22.693 5.039L24.0229 3.82876L22.6768 2.34954ZM21.3469 2.61851L22.6768 3.82876L24.0229 2.34954L22.693 1.1393L21.3469 2.61851ZM22.6549 13.589L21.3359 14.7893L22.682 16.2685L24.001 15.0683L22.6549 13.589ZM21.3359 13.868L22.6549 15.0683L24.001 13.589L22.682 12.3888L21.3359 13.868ZM1.21973 4.28509C2.57348 4.28509 4.02405 4.86471 5.61134 5.8654C7.19443 6.86345 8.79907 8.2042 10.4722 9.60308L11.755 8.06873C10.1079 6.69156 8.39637 5.25691 6.67795 4.17356C4.96374 3.09285 3.12749 2.28509 1.21973 2.28509V4.28509ZM10.4722 9.60308C12.1107 10.973 13.816 12.3997 15.5326 13.482C17.2454 14.562 19.0797 15.3725 20.9878 15.3939L21.0103 13.394C19.6431 13.3787 18.1852 12.7901 16.5993 11.7903C15.0173 10.7928 13.4176 9.45881 11.755 8.06873L10.4722 9.60308ZM20.999 2.14447C19.0893 2.14447 17.2508 2.97586 15.5384 4.08306C13.8203 5.1939 12.1085 6.66464 10.4624 8.07697L11.7648 9.59484C13.4361 8.16085 15.0416 6.78587 16.6243 5.76257C18.2126 4.73564 19.658 4.14447 20.999 4.14447V2.14447ZM10.4624 8.07697C8.78958 9.51229 7.18262 10.8891 5.59848 11.9139C4.00869 12.9424 2.56191 13.5346 1.21973 13.5346V15.5346C3.13103 15.5346 4.97109 14.7018 6.68483 13.5931C8.40421 12.4808 10.1174 11.0083 11.7648 9.59484L10.4624 8.07697Z" fill="#191414"/>
<path d="M23.3499 3.08915L24.0229 3.82876C24.2312 3.63925 24.3499 3.37072 24.3499 3.08915C24.3499 2.80758 24.2312 2.53905 24.0229 2.34954L23.3499 3.08915ZM21.3469 3.55979C20.9384 3.9315 20.9086 4.56396 21.2803 4.97243C21.652 5.38091 22.2845 5.41071 22.693 5.039L21.3469 3.55979ZM22.693 1.1393C22.2845 0.767591 21.652 0.797393 21.2803 1.20587C20.9086 1.61434 20.9384 2.2468 21.3469 2.61851L22.693 1.1393ZM23.3279 14.3287L24.001 15.0683C24.2092 14.8787 24.3279 14.6102 24.3279 14.3287C24.3279 14.0471 24.2092 13.7786 24.001 13.589L23.3279 14.3287ZM21.3359 14.7893C20.9274 15.161 20.8976 15.7935 21.2694 16.2019C21.6411 16.6104 22.2735 16.6402 22.682 16.2685L21.3359 14.7893ZM22.682 12.3888C22.2735 12.0171 21.6411 12.0469 21.2694 12.4554C20.8976 12.8638 20.9274 13.4963 21.3359 13.868L22.682 12.3888ZM1.21973 2.28509C0.667442 2.28509 0.219727 2.7328 0.219727 3.28509C0.219727 3.83737 0.667442 4.28509 1.21973 4.28509V2.28509ZM20.9878 15.3939C21.5401 15.4001 21.9928 14.9574 21.999 14.4052C22.0052 13.8529 21.5625 13.4002 21.0103 13.394L20.9878 15.3939ZM20.999 4.14447C21.5513 4.14447 21.999 3.69676 21.999 3.14447C21.999 2.59219 21.5513 2.14447 20.999 2.14447V4.14447ZM1.21973 13.5346C0.667442 13.5346 0.219727 13.9823 0.219727 14.5346C0.219727 15.0869 0.667442 15.5346 1.21973 15.5346V13.5346ZM22.6768 2.34954L21.3469 3.55979L22.693 5.039L24.0229 3.82876L22.6768 2.34954ZM21.3469 2.61851L22.6768 3.82876L24.0229 2.34954L22.693 1.1393L21.3469 2.61851ZM22.6549 13.589L21.3359 14.7893L22.682 16.2685L24.001 15.0683L22.6549 13.589ZM21.3359 13.868L22.6549 15.0683L24.001 13.589L22.682 12.3888L21.3359 13.868ZM1.21973 4.28509C2.57348 4.28509 4.02405 4.86471 5.61134 5.8654C7.19443 6.86345 8.79907 8.2042 10.4722 9.60308L11.755 8.06873C10.1079 6.69156 8.39637 5.25691 6.67795 4.17356C4.96374 3.09285 3.12749 2.28509 1.21973 2.28509V4.28509ZM10.4722 9.60308C12.1107 10.973 13.816 12.3997 15.5326 13.482C17.2454 14.562 19.0797 15.3725 20.9878 15.3939L21.0103 13.394C19.6431 13.3787 18.1852 12.7901 16.5993 11.7903C15.0173 10.7928 13.4176 9.45881 11.755 8.06873L10.4722 9.60308ZM20.999 2.14447C19.0893 2.14447 17.2508 2.97586 15.5384 4.08306C13.8203 5.1939 12.1085 6.66464 10.4624 8.07697L11.7648 9.59484C13.4361 8.16085 15.0416 6.78587 16.6243 5.76257C18.2126 4.73564 19.658 4.14447 20.999 4.14447V2.14447ZM10.4624 8.07697C8.78958 9.51229 7.18262 10.8891 5.59848 11.9139C4.00869 12.9424 2.56191 13.5346 1.21973 13.5346V15.5346C3.13103 15.5346 4.97109 14.7018 6.68483 13.5931C8.40421 12.4808 10.1174 11.0083 11.7648 9.59484L10.4624 8.07697Z" fill="#F1F1F1"/>
</svg>
