<svg width="25" height="17" viewBox="0 0 25 17" fill="none" xmlns="http://www.w3.org/2000/svg">
<path d="M23.1301 3.1702L23.8032 3.90981C24.0114 3.7203 24.1301 3.45178 24.1301 3.1702C24.1301 2.88863 24.0114 2.62011 23.8032 2.4306L23.1301 3.1702ZM21.1272 3.64084C20.7187 4.01255 20.6889 4.64502 21.0606 5.05349C21.4323 5.46196 22.0648 5.49176 22.4732 5.12005L21.1272 3.64084ZM22.4732 1.22036C22.0648 0.848645 21.4323 0.878447 21.0606 1.28692C20.6889 1.69539 20.7187 2.32786 21.1272 2.69957L22.4732 1.22036ZM23.1082 14.4097L23.7812 15.1493C23.9895 14.9598 24.1082 14.6913 24.1082 14.4097C24.1082 14.1281 23.9895 13.8596 23.7812 13.6701L23.1082 14.4097ZM21.1162 14.8704C20.7077 15.2421 20.6779 15.8745 21.0496 16.283C21.4213 16.6915 22.0538 16.7213 22.4623 16.3496L21.1162 14.8704ZM22.4623 12.4698C22.0538 12.0981 21.4213 12.1279 21.0496 12.5364C20.6779 12.9449 20.7077 13.5773 21.1162 13.9491L22.4623 12.4698ZM1 2.36614C0.447715 2.36614 0 2.81386 0 3.36614C0 3.91843 0.447715 4.36614 1 4.36614V2.36614ZM20.7681 15.4749C21.3203 15.4811 21.7731 15.0385 21.7793 14.4862C21.7855 13.934 21.3428 13.4813 20.7905 13.4751L20.7681 15.4749ZM20.7793 4.22553C21.3316 4.22553 21.7793 3.77781 21.7793 3.22553C21.7793 2.67324 21.3316 2.22553 20.7793 2.22553V4.22553ZM1 13.6156C0.447715 13.6156 0 14.0633 0 14.6156C0 15.1679 0.447715 15.6156 1 15.6156V13.6156ZM22.4571 2.4306L21.1272 3.64084L22.4732 5.12005L23.8032 3.90981L22.4571 2.4306ZM21.1272 2.69957L22.4571 3.90981L23.8032 2.4306L22.4732 1.22036L21.1272 2.69957ZM22.4352 13.6701L21.1162 14.8704L22.4623 16.3496L23.7812 15.1493L22.4352 13.6701ZM21.1162 13.9491L22.4352 15.1493L23.7812 13.6701L22.4623 12.4698L21.1162 13.9491ZM1 4.36614C2.35375 4.36614 3.80432 4.94577 5.39162 5.94646C6.97471 6.9445 8.57934 8.28526 10.2524 9.68413L11.5353 8.14978C9.88819 6.77262 8.17664 5.33797 6.45823 4.25461C4.74402 3.17391 2.90776 2.36614 1 2.36614V4.36614ZM10.2524 9.68413C11.8909 11.0541 13.5963 12.4807 15.3129 13.5631C17.0257 14.643 18.86 15.4535 20.7681 15.4749L20.7905 13.4751C19.4233 13.4597 17.9654 12.8712 16.3796 11.8713C14.7976 10.8738 13.1979 9.53987 11.5353 8.14978L10.2524 9.68413ZM20.7793 2.22553C18.8696 2.22553 17.031 3.05691 15.3186 4.16412C13.6006 5.27496 11.8888 6.7457 10.2427 8.15802L11.545 9.67589C13.2164 8.2419 14.8219 6.86692 16.4046 5.84363C17.9928 4.8167 19.4383 4.22553 20.7793 4.22553V2.22553ZM10.2427 8.15802C8.56986 9.59334 6.96289 10.9701 5.37875 11.995C3.78896 13.0234 2.34218 13.6156 1 13.6156V15.6156C2.9113 15.6156 4.75137 14.7829 6.4651 13.6742C8.18448 12.5619 9.89772 11.0893 11.545 9.67589L10.2427 8.15802Z" fill="#191414"/>
<path d="M23.1301 3.1702L23.8032 3.90981C24.0114 3.7203 24.1301 3.45178 24.1301 3.1702C24.1301 2.88863 24.0114 2.62011 23.8032 2.4306L23.1301 3.1702ZM21.1272 3.64084C20.7187 4.01255 20.6889 4.64502 21.0606 5.05349C21.4323 5.46196 22.0648 5.49176 22.4732 5.12005L21.1272 3.64084ZM22.4732 1.22036C22.0648 0.848645 21.4323 0.878447 21.0606 1.28692C20.6889 1.69539 20.7187 2.32786 21.1272 2.69957L22.4732 1.22036ZM23.1082 14.4097L23.7812 15.1493C23.9895 14.9598 24.1082 14.6913 24.1082 14.4097C24.1082 14.1281 23.9895 13.8596 23.7812 13.6701L23.1082 14.4097ZM21.1162 14.8704C20.7077 15.2421 20.6779 15.8745 21.0496 16.283C21.4213 16.6915 22.0538 16.7213 22.4623 16.3496L21.1162 14.8704ZM22.4623 12.4698C22.0538 12.0981 21.4213 12.1279 21.0496 12.5364C20.6779 12.9449 20.7077 13.5773 21.1162 13.9491L22.4623 12.4698ZM1 2.36614C0.447715 2.36614 0 2.81386 0 3.36614C0 3.91843 0.447715 4.36614 1 4.36614V2.36614ZM20.7681 15.4749C21.3203 15.4811 21.7731 15.0385 21.7793 14.4862C21.7855 13.934 21.3428 13.4813 20.7905 13.4751L20.7681 15.4749ZM20.7793 4.22553C21.3316 4.22553 21.7793 3.77781 21.7793 3.22553C21.7793 2.67324 21.3316 2.22553 20.7793 2.22553V4.22553ZM1 13.6156C0.447715 13.6156 0 14.0633 0 14.6156C0 15.1679 0.447715 15.6156 1 15.6156V13.6156ZM22.4571 2.4306L21.1272 3.64084L22.4732 5.12005L23.8032 3.90981L22.4571 2.4306ZM21.1272 2.69957L22.4571 3.90981L23.8032 2.4306L22.4732 1.22036L21.1272 2.69957ZM22.4352 13.6701L21.1162 14.8704L22.4623 16.3496L23.7812 15.1493L22.4352 13.6701ZM21.1162 13.9491L22.4352 15.1493L23.7812 13.6701L22.4623 12.4698L21.1162 13.9491ZM1 4.36614C2.35375 4.36614 3.80432 4.94577 5.39162 5.94646C6.97471 6.9445 8.57934 8.28526 10.2524 9.68413L11.5353 8.14978C9.88819 6.77262 8.17664 5.33797 6.45823 4.25461C4.74402 3.17391 2.90776 2.36614 1 2.36614V4.36614ZM10.2524 9.68413C11.8909 11.0541 13.5963 12.4807 15.3129 13.5631C17.0257 14.643 18.86 15.4535 20.7681 15.4749L20.7905 13.4751C19.4233 13.4597 17.9654 12.8712 16.3796 11.8713C14.7976 10.8738 13.1979 9.53987 11.5353 8.14978L10.2524 9.68413ZM20.7793 2.22553C18.8696 2.22553 17.031 3.05691 15.3186 4.16412C13.6006 5.27496 11.8888 6.7457 10.2427 8.15802L11.545 9.67589C13.2164 8.2419 14.8219 6.86692 16.4046 5.84363C17.9928 4.8167 19.4383 4.22553 20.7793 4.22553V2.22553ZM10.2427 8.15802C8.56986 9.59334 6.96289 10.9701 5.37875 11.995C3.78896 13.0234 2.34218 13.6156 1 13.6156V15.6156C2.9113 15.6156 4.75137 14.7829 6.4651 13.6742C8.18448 12.5619 9.89772 11.0893 11.545 9.67589L10.2427 8.15802Z" fill="#F1F1F1"/>
<path d="M23.1301 3.1702L23.8032 3.90981C24.0114 3.7203 24.1301 3.45178 24.1301 3.1702C24.1301 2.88863 24.0114 2.62011 23.8032 2.4306L23.1301 3.1702ZM21.1272 3.64084C20.7187 4.01255 20.6889 4.64502 21.0606 5.05349C21.4323 5.46196 22.0648 5.49176 22.4732 5.12005L21.1272 3.64084ZM22.4732 1.22036C22.0648 0.848645 21.4323 0.878447 21.0606 1.28692C20.6889 1.69539 20.7187 2.32786 21.1272 2.69957L22.4732 1.22036ZM23.1082 14.4097L23.7812 15.1493C23.9895 14.9598 24.1082 14.6913 24.1082 14.4097C24.1082 14.1281 23.9895 13.8596 23.7812 13.6701L23.1082 14.4097ZM21.1162 14.8704C20.7077 15.2421 20.6779 15.8745 21.0496 16.283C21.4213 16.6915 22.0538 16.7213 22.4623 16.3496L21.1162 14.8704ZM22.4623 12.4698C22.0538 12.0981 21.4213 12.1279 21.0496 12.5364C20.6779 12.9449 20.7077 13.5773 21.1162 13.9491L22.4623 12.4698ZM1 2.36614C0.447715 2.36614 0 2.81386 0 3.36614C0 3.91843 0.447715 4.36614 1 4.36614V2.36614ZM20.7681 15.4749C21.3203 15.4811 21.7731 15.0385 21.7793 14.4862C21.7855 13.934 21.3428 13.4813 20.7905 13.4751L20.7681 15.4749ZM20.7793 4.22553C21.3316 4.22553 21.7793 3.77781 21.7793 3.22553C21.7793 2.67324 21.3316 2.22553 20.7793 2.22553V4.22553ZM1 13.6156C0.447715 13.6156 0 14.0633 0 14.6156C0 15.1679 0.447715 15.6156 1 15.6156V13.6156ZM22.4571 2.4306L21.1272 3.64084L22.4732 5.12005L23.8032 3.90981L22.4571 2.4306ZM21.1272 2.69957L22.4571 3.90981L23.8032 2.4306L22.4732 1.22036L21.1272 2.69957ZM22.4352 13.6701L21.1162 14.8704L22.4623 16.3496L23.7812 15.1493L22.4352 13.6701ZM21.1162 13.9491L22.4352 15.1493L23.7812 13.6701L22.4623 12.4698L21.1162 13.9491ZM1 4.36614C2.35375 4.36614 3.80432 4.94577 5.39162 5.94646C6.97471 6.9445 8.57934 8.28526 10.2524 9.68413L11.5353 8.14978C9.88819 6.77262 8.17664 5.33797 6.45823 4.25461C4.74402 3.17391 2.90776 2.36614 1 2.36614V4.36614ZM10.2524 9.68413C11.8909 11.0541 13.5963 12.4807 15.3129 13.5631C17.0257 14.643 18.86 15.4535 20.7681 15.4749L20.7905 13.4751C19.4233 13.4597 17.9654 12.8712 16.3796 11.8713C14.7976 10.8738 13.1979 9.53987 11.5353 8.14978L10.2524 9.68413ZM20.7793 2.22553C18.8696 2.22553 17.031 3.05691 15.3186 4.16412C13.6006 5.27496 11.8888 6.7457 10.2427 8.15802L11.545 9.67589C13.2164 8.2419 14.8219 6.86692 16.4046 5.84363C17.9928 4.8167 19.4383 4.22553 20.7793 4.22553V2.22553ZM10.2427 8.15802C8.56986 9.59334 6.96289 10.9701 5.37875 11.995C3.78896 13.0234 2.34218 13.6156 1 13.6156V15.6156C2.9113 15.6156 4.75137 14.7829 6.4651 13.6742C8.18448 12.5619 9.89772 11.0893 11.545 9.67589L10.2427 8.15802Z" fill="#1DB954"/>
</svg>
