<svg width="21" height="23" viewBox="0 0 21 23" fill="none" xmlns="http://www.w3.org/2000/svg">
<path d="M18.7361 19.2512C19.2899 16.9343 19.5831 14.5162 19.5831 12.0297C19.5831 9.17156 19.1957 6.40395 18.4705 3.77647M1.30371 5.88173H5.34638L12.1644 1.16895C11.1937 12.3819 10.8915 9.35651 12.1644 21.1689L5.34638 17.1459H1.30371V5.88173Z" stroke="#191414" stroke-width="2" stroke-linecap="round" stroke-linejoin="round"/>
<path d="M18.7361 19.2512C19.2899 16.9343 19.5831 14.5162 19.5831 12.0297C19.5831 9.17156 19.1957 6.40395 18.4705 3.77647M1.30371 5.88173H5.34638L12.1644 1.16895C11.1937 12.3819 10.8915 9.35651 12.1644 21.1689L5.34638 17.1459H1.30371V5.88173Z" stroke="#F1F1F1" stroke-width="2" stroke-linecap="round" stroke-linejoin="round"/>
</svg>
